# xmcd CD database file
#
# Track frame offsets:
#	150
#	19392
#	59912
#	74262
#	97647
#	118950
#	142297
#	170695
#	180192
#	199205
#	221600
#	246225
#
# Disc length: 3685 seconds
#
# Revision: 0
# Processed by: cddbd v1.5.2PL0 Copyright (c) Steve Scherf et al.
# Submitted via: CDex 1.51
#
DISCID=bc0e630c
DTITLE=George Essihoss - Solo Journeys
DYEAR=2000
DGENRE=Jazz
TTITLE0=Very Early  by Bill Evans
TTITLE1=Variations on What is This Thing Called Love by Cole Porter
TTITLE2=Echoes of Spain  by G. Essihoss
TTITLE3=Make Someone Happy  by Jule Styne
TTITLE4=How Long Has This Been Going On  by G. Gershwin
TTITLE5=I Loves You Porgy    G. Gershwin
TTITLE6=Summertime   G. Gershwin
TTITLE7=In A Chinese Garden    by George Essihoss
TTITLE8=To Renate    by  G. Essihoss
TTITLE9=All the Things You Are   by Jerome Kern
TTITLE10=Laver Man  by Ram Ramirez
TTITLE11=Egyptian Tombs   by George Essihoss
EXTD=YEAR: 2000
EXTT0=
EXTT1=
EXTT2=
EXTT3=
EXTT4=
EXTT5=
EXTT6=
EXTT7=
EXTT8=
EXTT9=
EXTT10=
EXTT11=
PLAYORDER=
